<svg width="532" height="207" viewBox="0 0 532 207" fill="none" xmlns="http://www.w3.org/2000/svg">
<path d="M77.46 150.864C69.78 150.864 62.868 149.136 56.724 145.68C50.676 142.128 45.876 137.328 42.324 131.28C38.868 125.136 37.14 118.224 37.14 110.544C37.14 102.864 38.868 96 42.324 89.952C45.876 83.904 50.676 79.152 56.724 75.696C62.868 72.144 69.78 70.368 77.46 70.368C84.372 70.368 90.564 71.856 96.036 74.832C101.604 77.808 105.924 81.792 108.996 86.784V41.856C108.996 40.512 109.38 39.456 110.148 38.688C111.012 37.92 112.068 37.536 113.316 37.536C114.66 37.536 115.716 37.92 116.484 38.688C117.252 39.456 117.636 40.512 117.636 41.856V111.408C117.54 118.896 115.716 125.616 112.164 131.568C108.612 137.52 103.812 142.224 97.764 145.68C91.812 149.136 85.044 150.864 77.46 150.864ZM77.46 142.8C83.508 142.8 88.884 141.408 93.588 138.624C98.388 135.744 102.132 131.904 104.82 127.104C107.604 122.208 108.996 116.688 108.996 110.544C108.996 104.4 107.604 98.928 104.82 94.128C102.132 89.328 98.388 85.536 93.588 82.752C88.884 79.872 83.508 78.432 77.46 78.432C71.508 78.432 66.132 79.872 61.332 82.752C56.532 85.536 52.74 89.328 49.956 94.128C47.172 98.928 45.78 104.4 45.78 110.544C45.78 116.688 47.172 122.208 49.956 127.104C52.74 131.904 56.532 135.744 61.332 138.624C66.132 141.408 71.508 142.8 77.46 142.8ZM178.402 150.72C170.818 150.72 164.05 149.04 158.098 145.68C152.242 142.224 147.634 137.472 144.274 131.424C140.914 125.376 139.234 118.464 139.234 110.688C139.234 102.816 140.818 95.904 143.986 89.952C147.154 83.904 151.522 79.152 157.09 75.696C162.658 72.24 169.042 70.512 176.242 70.512C183.346 70.512 189.634 72.192 195.106 75.552C200.578 78.816 204.85 83.376 207.922 89.232C210.994 94.992 212.53 101.664 212.53 109.248C212.53 110.496 212.146 111.504 211.378 112.272C210.61 112.944 209.602 113.28 208.354 113.28H144.994V105.792H210.658L204.322 110.544C204.514 104.304 203.458 98.784 201.154 93.984C198.85 89.184 195.538 85.44 191.218 82.752C186.994 79.968 182.002 78.576 176.242 78.576C170.77 78.576 165.874 79.968 161.554 82.752C157.33 85.44 153.97 89.184 151.474 93.984C149.074 98.784 147.874 104.352 147.874 110.688C147.874 116.928 149.17 122.448 151.762 127.248C154.354 132.048 157.954 135.84 162.562 138.624C167.17 141.312 172.45 142.656 178.402 142.656C182.146 142.656 185.89 142.032 189.634 140.784C193.474 139.44 196.498 137.712 198.706 135.6C199.474 134.832 200.386 134.448 201.442 134.448C202.594 134.352 203.554 134.64 204.322 135.312C205.378 136.176 205.906 137.136 205.906 138.192C206.002 139.248 205.57 140.208 204.61 141.072C201.538 143.856 197.506 146.16 192.514 147.984C187.618 149.808 182.914 150.72 178.402 150.72ZM263.339 150.72C255.755 150.72 248.987 149.04 243.035 145.68C237.179 142.224 232.571 137.472 229.211 131.424C225.851 125.376 224.171 118.464 224.171 110.688C224.171 102.816 225.755 95.904 228.923 89.952C232.091 83.904 236.459 79.152 242.027 75.696C247.595 72.24 253.979 70.512 261.179 70.512C268.283 70.512 274.571 72.192 280.043 75.552C285.515 78.816 289.787 83.376 292.859 89.232C295.931 94.992 297.467 101.664 297.467 109.248C297.467 110.496 297.083 111.504 296.315 112.272C295.547 112.944 294.539 113.28 293.291 113.28H229.931V105.792H295.595L289.259 110.544C289.451 104.304 288.395 98.784 286.091 93.984C283.787 89.184 280.475 85.44 276.155 82.752C271.931 79.968 266.939 78.576 261.179 78.576C255.707 78.576 250.811 79.968 246.491 82.752C242.267 85.44 238.907 89.184 236.411 93.984C234.011 98.784 232.811 104.352 232.811 110.688C232.811 116.928 234.107 122.448 236.699 127.248C239.291 132.048 242.891 135.84 247.499 138.624C252.107 141.312 257.387 142.656 263.339 142.656C267.083 142.656 270.827 142.032 274.571 140.784C278.411 139.44 281.435 137.712 283.643 135.6C284.411 134.832 285.323 134.448 286.379 134.448C287.531 134.352 288.491 134.64 289.259 135.312C290.315 136.176 290.843 137.136 290.843 138.192C290.939 139.248 290.507 140.208 289.547 141.072C286.475 143.856 282.443 146.16 277.451 147.984C272.555 149.808 267.851 150.72 263.339 150.72ZM320.561 183.696C319.313 183.696 318.257 183.264 317.393 182.4C316.625 181.632 316.241 180.624 316.241 179.376V109.824C316.433 102.24 318.257 95.52 321.713 89.664C325.265 83.712 330.065 79.008 336.113 75.552C342.161 72.096 348.929 70.368 356.417 70.368C364.097 70.368 370.961 72.144 377.009 75.696C383.153 79.152 387.953 83.952 391.409 90.096C394.961 96.144 396.737 103.008 396.737 110.688C396.737 118.272 394.961 125.136 391.409 131.28C387.953 137.328 383.153 142.128 377.009 145.68C370.961 149.136 364.097 150.864 356.417 150.864C349.505 150.864 343.265 149.376 337.697 146.4C332.225 143.424 327.953 139.44 324.881 134.448V179.376C324.881 180.624 324.497 181.632 323.729 182.4C322.961 183.264 321.905 183.696 320.561 183.696ZM356.417 142.8C362.465 142.8 367.841 141.408 372.545 138.624C377.345 135.744 381.137 131.904 383.921 127.104C386.705 122.208 388.097 116.736 388.097 110.688C388.097 104.544 386.705 99.072 383.921 94.272C381.137 89.376 377.345 85.536 372.545 82.752C367.841 79.872 362.465 78.432 356.417 78.432C350.465 78.432 345.089 79.872 340.289 82.752C335.489 85.536 331.697 89.376 328.913 94.272C326.225 99.072 324.881 104.544 324.881 110.688C324.881 116.736 326.225 122.208 328.913 127.104C331.697 131.904 335.489 135.744 340.289 138.624C345.089 141.408 350.465 142.8 356.417 142.8ZM454.335 150.864C446.655 150.864 439.743 149.136 433.599 145.68C427.551 142.128 422.751 137.328 419.199 131.28C415.743 125.136 414.015 118.272 414.015 110.688C414.015 103.008 415.743 96.144 419.199 90.096C422.751 83.952 427.551 79.152 433.599 75.696C439.743 72.144 446.655 70.368 454.335 70.368C462.015 70.368 468.879 72.144 474.927 75.696C480.975 79.152 485.727 83.952 489.183 90.096C492.735 96.144 494.511 103.008 494.511 110.688L490.911 116.448C490.911 122.976 489.279 128.832 486.015 134.016C482.847 139.2 478.527 143.328 473.055 146.4C467.583 149.376 461.343 150.864 454.335 150.864ZM454.335 142.8C460.383 142.8 465.759 141.408 470.463 138.624C475.263 135.744 479.007 131.904 481.695 127.104C484.479 122.208 485.871 116.736 485.871 110.688C485.871 104.544 484.479 99.072 481.695 94.272C479.007 89.376 475.263 85.536 470.463 82.752C465.759 79.872 460.383 78.432 454.335 78.432C448.383 78.432 443.007 79.872 438.207 82.752C433.407 85.536 429.615 89.376 426.831 94.272C424.047 99.072 422.655 104.544 422.655 110.688C422.655 116.736 424.047 122.208 426.831 127.104C429.615 131.904 433.407 135.744 438.207 138.624C443.007 141.408 448.383 142.8 454.335 142.8ZM490.191 150C488.943 150 487.887 149.616 487.023 148.848C486.255 147.984 485.871 146.928 485.871 145.68V119.328L488.607 110.688H494.511V145.68C494.511 146.928 494.127 147.984 493.359 148.848C492.591 149.616 491.535 150 490.191 150Z" fill="white"/>
</svg>
