<svg width="974" height="424" viewBox="0 0 974 424" fill="none" xmlns="http://www.w3.org/2000/svg">
<path d="M454.023 254.364C446.343 254.364 439.431 252.636 433.287 249.18C427.239 245.628 422.439 240.828 418.887 234.78C415.431 228.636 413.703 221.724 413.703 214.044C413.703 206.364 415.431 199.5 418.887 193.452C422.439 187.404 427.239 182.652 433.287 179.196C439.431 175.644 446.343 173.868 454.023 173.868C460.935 173.868 467.127 175.356 472.599 178.332C478.167 181.308 482.487 185.292 485.559 190.284V145.356C485.559 144.012 485.943 142.956 486.711 142.188C487.575 141.42 488.631 141.036 489.879 141.036C491.223 141.036 492.279 141.42 493.047 142.188C493.815 142.956 494.199 144.012 494.199 145.356V214.908C494.103 222.396 492.279 229.116 488.727 235.068C485.175 241.02 480.375 245.724 474.327 249.18C468.375 252.636 461.607 254.364 454.023 254.364ZM454.023 246.3C460.071 246.3 465.447 244.908 470.151 242.124C474.951 239.244 478.695 235.404 481.383 230.604C484.167 225.708 485.559 220.188 485.559 214.044C485.559 207.9 484.167 202.428 481.383 197.628C478.695 192.828 474.951 189.036 470.151 186.252C465.447 183.372 460.071 181.932 454.023 181.932C448.071 181.932 442.695 183.372 437.895 186.252C433.095 189.036 429.303 192.828 426.519 197.628C423.735 202.428 422.343 207.9 422.343 214.044C422.343 220.188 423.735 225.708 426.519 230.604C429.303 235.404 433.095 239.244 437.895 242.124C442.695 244.908 448.071 246.3 454.023 246.3ZM554.964 254.22C547.38 254.22 540.612 252.54 534.66 249.18C528.804 245.724 524.196 240.972 520.836 234.924C517.476 228.876 515.796 221.964 515.796 214.188C515.796 206.316 517.38 199.404 520.548 193.452C523.716 187.404 528.084 182.652 533.652 179.196C539.22 175.74 545.604 174.012 552.804 174.012C559.908 174.012 566.196 175.692 571.668 179.052C577.14 182.316 581.412 186.876 584.484 192.732C587.556 198.492 589.092 205.164 589.092 212.748C589.092 213.996 588.708 215.004 587.94 215.772C587.172 216.444 586.164 216.78 584.916 216.78H521.556V209.292H587.22L580.884 214.044C581.076 207.804 580.02 202.284 577.716 197.484C575.412 192.684 572.1 188.94 567.78 186.252C563.556 183.468 558.564 182.076 552.804 182.076C547.332 182.076 542.436 183.468 538.116 186.252C533.892 188.94 530.532 192.684 528.036 197.484C525.636 202.284 524.436 207.852 524.436 214.188C524.436 220.428 525.732 225.948 528.324 230.748C530.916 235.548 534.516 239.34 539.124 242.124C543.732 244.812 549.012 246.156 554.964 246.156C558.708 246.156 562.452 245.532 566.196 244.284C570.036 242.94 573.06 241.212 575.268 239.1C576.036 238.332 576.948 237.948 578.004 237.948C579.156 237.852 580.116 238.14 580.884 238.812C581.94 239.676 582.468 240.636 582.468 241.692C582.564 242.748 582.132 243.708 581.172 244.572C578.1 247.356 574.068 249.66 569.076 251.484C564.18 253.308 559.476 254.22 554.964 254.22ZM639.902 254.22C632.318 254.22 625.55 252.54 619.598 249.18C613.742 245.724 609.134 240.972 605.774 234.924C602.414 228.876 600.734 221.964 600.734 214.188C600.734 206.316 602.318 199.404 605.486 193.452C608.654 187.404 613.022 182.652 618.59 179.196C624.158 175.74 630.542 174.012 637.742 174.012C644.846 174.012 651.134 175.692 656.606 179.052C662.078 182.316 666.35 186.876 669.422 192.732C672.494 198.492 674.03 205.164 674.03 212.748C674.03 213.996 673.646 215.004 672.878 215.772C672.11 216.444 671.102 216.78 669.854 216.78H606.494V209.292H672.158L665.822 214.044C666.014 207.804 664.958 202.284 662.654 197.484C660.35 192.684 657.038 188.94 652.718 186.252C648.494 183.468 643.502 182.076 637.742 182.076C632.27 182.076 627.374 183.468 623.054 186.252C618.83 188.94 615.47 192.684 612.974 197.484C610.574 202.284 609.374 207.852 609.374 214.188C609.374 220.428 610.67 225.948 613.262 230.748C615.854 235.548 619.454 239.34 624.062 242.124C628.67 244.812 633.95 246.156 639.902 246.156C643.646 246.156 647.39 245.532 651.134 244.284C654.974 242.94 657.998 241.212 660.206 239.1C660.974 238.332 661.886 237.948 662.942 237.948C664.094 237.852 665.054 238.14 665.822 238.812C666.878 239.676 667.406 240.636 667.406 241.692C667.502 242.748 667.07 243.708 666.11 244.572C663.038 247.356 659.006 249.66 654.014 251.484C649.118 253.308 644.414 254.22 639.902 254.22ZM697.124 287.196C695.876 287.196 694.82 286.764 693.956 285.9C693.188 285.132 692.804 284.124 692.804 282.876V213.324C692.996 205.74 694.82 199.02 698.276 193.164C701.828 187.212 706.628 182.508 712.676 179.052C718.724 175.596 725.492 173.868 732.98 173.868C740.66 173.868 747.524 175.644 753.572 179.196C759.716 182.652 764.516 187.452 767.972 193.596C771.524 199.644 773.3 206.508 773.3 214.188C773.3 221.772 771.524 228.636 767.972 234.78C764.516 240.828 759.716 245.628 753.572 249.18C747.524 252.636 740.66 254.364 732.98 254.364C726.068 254.364 719.828 252.876 714.26 249.9C708.788 246.924 704.516 242.94 701.444 237.948V282.876C701.444 284.124 701.06 285.132 700.292 285.9C699.524 286.764 698.468 287.196 697.124 287.196ZM732.98 246.3C739.028 246.3 744.404 244.908 749.108 242.124C753.908 239.244 757.7 235.404 760.484 230.604C763.268 225.708 764.66 220.236 764.66 214.188C764.66 208.044 763.268 202.572 760.484 197.772C757.7 192.876 753.908 189.036 749.108 186.252C744.404 183.372 739.028 181.932 732.98 181.932C727.028 181.932 721.652 183.372 716.852 186.252C712.052 189.036 708.26 192.876 705.476 197.772C702.788 202.572 701.444 208.044 701.444 214.188C701.444 220.236 702.788 225.708 705.476 230.604C708.26 235.404 712.052 239.244 716.852 242.124C721.652 244.908 727.028 246.3 732.98 246.3ZM830.898 254.364C823.218 254.364 816.306 252.636 810.162 249.18C804.114 245.628 799.314 240.828 795.762 234.78C792.306 228.636 790.578 221.772 790.578 214.188C790.578 206.508 792.306 199.644 795.762 193.596C799.314 187.452 804.114 182.652 810.162 179.196C816.306 175.644 823.218 173.868 830.898 173.868C838.578 173.868 845.442 175.644 851.49 179.196C857.538 182.652 862.29 187.452 865.746 193.596C869.298 199.644 871.074 206.508 871.074 214.188L867.474 219.948C867.474 226.476 865.842 232.332 862.578 237.516C859.41 242.7 855.09 246.828 849.618 249.9C844.146 252.876 837.906 254.364 830.898 254.364ZM830.898 246.3C836.946 246.3 842.322 244.908 847.026 242.124C851.826 239.244 855.57 235.404 858.258 230.604C861.042 225.708 862.434 220.236 862.434 214.188C862.434 208.044 861.042 202.572 858.258 197.772C855.57 192.876 851.826 189.036 847.026 186.252C842.322 183.372 836.946 181.932 830.898 181.932C824.946 181.932 819.57 183.372 814.77 186.252C809.97 189.036 806.178 192.876 803.394 197.772C800.61 202.572 799.218 208.044 799.218 214.188C799.218 220.236 800.61 225.708 803.394 230.604C806.178 235.404 809.97 239.244 814.77 242.124C819.57 244.908 824.946 246.3 830.898 246.3ZM866.754 253.5C865.506 253.5 864.45 253.116 863.586 252.348C862.818 251.484 862.434 250.428 862.434 249.18V222.828L865.17 214.188H871.074V249.18C871.074 250.428 870.69 251.484 869.922 252.348C869.154 253.116 868.098 253.5 866.754 253.5Z" fill="white"/>
<path d="M190.377 166.183C202.903 159.7 208.039 153.652 215.853 144.339C219.915 139.498 225.823 132.763 228.624 125.198C233.492 112.05 226.306 95.5182 236.123 83.8262C245.94 72.1341 263.373 70.6054 275.068 80.4189C286.763 90.2323 288.285 107.665 278.475 119.364C268.665 131.062 250.95 126.595 238.974 133.882C232.121 138.051 227.989 143.782 222.833 150.196C214.396 160.69 208.792 167.921 205.344 178.742C201.752 190.015 208.854 198.653 209.901 211.052C210.711 220.515 208.322 230.452 203.743 238.771C199.162 247.091 192.22 253.866 183.791 258.243C175.363 262.62 165.827 264.402 156.387 263.363C146.948 262.325 138.027 258.513 130.752 252.408C123.477 246.303 118.173 238.181 115.512 229.064C112.85 219.948 112.948 210.248 115.795 201.188C118.642 192.127 124.109 184.114 131.507 178.158C138.905 172.203 147.901 168.573 157.36 167.727C169.475 166.723 177.851 172.667 190.377 166.183Z" fill="url(#paint0_linear_212_5941)"/>
<path d="M260.937 261.817C248.411 268.3 243.275 274.348 235.461 283.661C231.399 288.502 225.491 295.237 222.69 302.802C217.822 315.95 225.008 332.482 215.191 344.174C205.374 355.866 187.941 357.395 176.246 347.581C164.551 337.768 163.029 320.335 172.839 308.636C182.648 296.938 200.364 301.405 212.34 294.118C219.193 289.949 223.325 284.218 228.481 277.804C236.918 267.31 242.522 260.079 245.97 249.258C249.562 237.985 242.46 229.347 241.413 216.948C240.603 207.485 242.992 197.548 247.571 189.229C252.152 180.909 259.094 174.134 267.523 169.757C275.951 165.38 285.487 163.598 294.927 164.637C304.366 165.675 313.287 169.487 320.562 175.592C327.837 181.697 333.141 189.819 335.802 198.936C338.464 208.052 338.366 217.752 335.519 226.812C332.672 235.873 327.205 243.886 319.807 249.842C312.409 255.797 303.413 259.427 293.954 260.273C281.839 261.277 273.463 255.333 260.937 261.817Z" fill="url(#paint1_linear_212_5941)"/>
<defs>
<linearGradient id="paint0_linear_212_5941" x1="275.068" y1="80.4189" x2="130.752" y2="252.408" gradientUnits="userSpaceOnUse">
<stop offset="0.661458" stop-color="#50AAEB"/>
<stop offset="1" stop-color="#4BD1EE"/>
</linearGradient>
<linearGradient id="paint1_linear_212_5941" x1="176.246" y1="347.581" x2="320.562" y2="175.592" gradientUnits="userSpaceOnUse">
<stop offset="0.661458" stop-color="#50AAEB"/>
<stop offset="1" stop-color="#4BD1EE"/>
</linearGradient>
</defs>
</svg>
