<?xml version="1.0" standalone="no"?>
<!DOCTYPE svg PUBLIC "-//W3C//DTD SVG 20010904//EN"
 "http://www.w3.org/TR/2001/REC-SVG-20010904/DTD/svg10.dtd">
<svg version="1.0" xmlns="http://www.w3.org/2000/svg"
 width="512.000000pt" height="512.000000pt" viewBox="0 0 512.000000 512.000000"
 preserveAspectRatio="xMidYMid meet">
<metadata>
Created by potrace 1.14, written by Peter Selinger 2001-2017
</metadata>
<g transform="translate(0.000000,512.000000) scale(0.100000,-0.100000)"
fill="#000000" stroke="none">
<path d="M3040 5023 c-43 -6 -143 -45 -184 -71 -88 -55 -175 -171 -189 -252
-3 -14 -8 -36 -11 -50 -4 -14 -8 -110 -10 -215 -2 -104 -9 -215 -16 -245 -25
-117 -103 -241 -279 -444 -162 -187 -245 -256 -407 -337 -93 -46 -108 -50
-190 -55 -51 -3 -131 1 -189 9 -192 27 -355 4 -510 -74 -331 -167 -513 -515
-460 -884 5 -33 10 -62 10 -65 36 -148 113 -286 222 -398 162 -167 372 -255
603 -254 116 0 125 1 235 31 209 58 394 204 507 401 28 50 74 162 82 200 2 14
9 48 15 75 29 131 17 256 -43 463 -20 68 -38 150 -39 182 -8 121 59 288 186
466 39 54 73 101 77 104 3 3 30 36 60 75 80 102 90 114 145 170 84 86 190 155
262 170 10 2 38 8 63 13 25 6 61 13 80 16 52 8 154 27 165 30 81 22 109 32
158 58 102 55 185 172 211 300 18 90 9 211 -20 267 -8 14 -14 31 -14 36 0 17
-58 98 -102 143 -49 50 -142 105 -208 123 -45 12 -162 19 -210 12z"/>
<path d="M3637 3434 c-1 -1 -24 -4 -52 -7 -106 -13 -178 -34 -270 -80 -291
-145 -471 -433 -479 -767 -2 -64 15 -171 39 -250 60 -201 69 -266 50 -360 -13
-62 -53 -157 -102 -242 -29 -49 -215 -304 -232 -318 -4 -3 -24 -27 -46 -55
-65 -83 -170 -180 -234 -214 -61 -32 -167 -63 -255 -75 -27 -4 -52 -9 -55 -10
-3 -2 -27 -7 -52 -10 -227 -30 -380 -164 -422 -369 -34 -164 13 -317 134 -440
184 -185 463 -194 669 -20 37 31 91 111 110 164 27 72 32 114 35 306 5 251 15
300 93 428 30 49 132 184 176 232 6 6 36 40 66 74 147 169 338 302 484 338 55
13 165 13 243 -1 443 -78 858 187 970 621 34 134 35 287 2 416 -33 130 -111
273 -201 371 -144 156 -372 260 -588 268 -44 1 -81 2 -83 0z"/>
</g>
</svg>
